<svg version="1.2" xmlns="http://www.w3.org/2000/svg" viewBox="0 0 512 512" width="512" height="512">
	<title>ferris</title>
	<style>
		.s0 { fill: none;stroke: #dcff4d;stroke-miterlimit:100;stroke-width: 9.2 } 
		.s1 { fill: #6cffb9 } 
		.s2 { fill: #dcff4d } 
		.s3 { fill: none;stroke: #dcff4d;stroke-miterlimit:100;stroke-width: 14 } 
		.s4 { fill: none;stroke: #dcff4d;stroke-miterlimit:100;stroke-width: 5.6 } 
	</style>
	<path id="Inner Circle" fill-rule="evenodd" class="s0" d="m256 291c-19.4 0-35-15.6-35-35 0-19.4 15.6-35 35-35 19.4 0 35 15.6 35 35 0 19.4-15.6 35-35 35z"/>
	<path id="Axl" fill-rule="evenodd" class="s1" d="m256 266c-5.5 0-10-4.5-10-10 0-5.5 4.5-10 10-10 5.5 0 10 4.5 10 10 0 5.5-4.5 10-10 10z"/>
	<path id="Bar1" fill-rule="evenodd" class="s2" d="m123.6 116.4l111.7 111.7-7.3 7.4-111.7-111.7z"/>
	<path id="Bar2" fill-rule="evenodd" class="s2" d="m261 66v158h-10.3v-158z"/>
	<path id="Bar3" fill-rule="evenodd" class="s2" d="m397.5 122.3l-111.7 111.7-7.6-7.6 111.8-111.7z"/>
	<path id="Bar4" fill-rule="evenodd" class="s2" d="m454 261h-158v-10h158z"/>
	<path id="Bar5" fill-rule="evenodd" class="s2" d="m219 261h-158v-10h158z"/>
	<path id="Bar6" fill-rule="evenodd" class="s2" d="m232.4 285.2l-111.8 111.7-7.5-7.5 111.7-111.8z"/>
	<path id="Bar7" fill-rule="evenodd" class="s2" d="m261.3 293v158h-10.3v-158z"/>
	<path id="Bar8" fill-rule="evenodd" class="s2" d="m285.1 277.7l111.7 111.7-6.9 6.9-111.7-111.7z"/>
	<path id="Outer Circle" fill-rule="evenodd" class="s3" d="m255.5 453c-105.9 0-191.5-85.6-191.5-191.5 0-105.9 85.6-191.5 191.5-191.5 105.9 0 191.5 85.6 191.5 191.5 0 105.9-85.6 191.5-191.5 191.5z"/>
	<path id="Shape 1 copy 2" class="s4" d="m256 61c-12.2 0-22-9.8-22-22 0-12.2 9.8-22 22-22 12.2 0 22 9.8 22 22 0 12.2-9.8 22-22 22zm0 1c-12.2 0-22-9.8-22-22 0-12.2 9.8-22 22-22 12.2 0 22 9.8 22 22 0 12.2-9.8 22-22 22z"/>
	<path id="Shape 1" class="s4" d="m102 122c-12.2 0-22-9.8-22-22 0-12.2 9.8-22 22-22 12.2 0 22 9.8 22 22 0 12.2-9.8 22-22 22zm0 1c-12.2 0-22-9.8-22-22 0-12.2 9.8-22 22-22 12.2 0 22 9.8 22 22 0 12.2-9.8 22-22 22z"/>
	<path id="Shape 1 copy 7" class="s4" d="m33 277c-12.2 0-22-9.8-22-22 0-12.2 9.8-22 22-22 12.2 0 22 9.8 22 22 0 12.2-9.8 22-22 22zm0 1c-12.2 0-22-9.8-22-22 0-12.2 9.8-22 22-22 12.2 0 22 9.8 22 22 0 12.2-9.8 22-22 22z"/>
	<path id="Shape 1 copy" class="s4" d="m256 504c-12.2 0-22-9.8-22-22 0-12.2 9.8-22 22-22 12.2 0 22 9.8 22 22 0 12.2-9.8 22-22 22zm0 1c-12.2 0-22-9.8-22-22 0-12.2 9.8-22 22-22 12.2 0 22 9.8 22 22 0 12.2-9.8 22-22 22z"/>
	<path id="Shape 1 copy 4" class="s4" d="m416 437c-12.2 0-22-9.8-22-22 0-12.2 9.8-22 22-22 12.2 0 22 9.8 22 22 0 12.2-9.8 22-22 22zm0 1c-12.2 0-22-9.8-22-22 0-12.2 9.8-22 22-22 12.2 0 22 9.8 22 22 0 12.2-9.8 22-22 22z"/>
	<path id="Shape 1 copy 5" class="s4" d="m477 277c-12.2 0-22-9.8-22-22 0-12.2 9.8-22 22-22 12.2 0 22 9.8 22 22 0 12.2-9.8 22-22 22zm0 1c-12.2 0-22-9.8-22-22 0-12.2 9.8-22 22-22 12.2 0 22 9.8 22 22 0 12.2-9.8 22-22 22z"/>
	<path id="Shape 1 copy 6" class="s4" d="m413 126c-12.2 0-22-9.8-22-22 0-12.2 9.8-22 22-22 12.2 0 22 9.8 22 22 0 12.2-9.8 22-22 22zm0 1c-12.2 0-22-9.8-22-22 0-12.2 9.8-22 22-22 12.2 0 22 9.8 22 22 0 12.2-9.8 22-22 22z"/>
	<path id="Shape 1 copy 3" class="s4" d="m95 435c-12.2 0-22-9.8-22-22 0-12.2 9.8-22 22-22 12.2 0 22 9.8 22 22 0 12.2-9.8 22-22 22zm0 1c-12.2 0-22-9.8-22-22 0-12.2 9.8-22 22-22 12.2 0 22 9.8 22 22 0 12.2-9.8 22-22 22z"/>
</svg>